<svg xmlns="http://www.w3.org/2000/svg" viewBox="0 0 64 64" role="img" aria-labelledby="title">
  <title>CareFlow</title>
  <rect width="64" height="64" rx="16" fill="#0f172a" />
  <path
    d="M18 35.5 22.8 24a4 4 0 0 1 3.7-2.5h10.9a4 4 0 0 1 3.7 2.5L46 35.5c2.8.4 4 1.9 4 4.7V46a2 2 0 0 1-2 2h-2.2a5.8 5.8 0 0 1-11.2 0H29.4a5.8 5.8 0 0 1-11.2 0H16a2 2 0 0 1-2-2v-5.8c0-2.8 1.2-4.3 4-4.7Zm7.2-9.2L22 33h20l-3.2-6.7a1.6 1.6 0 0 0-1.4-.8h-10.9c-.6 0-1.2.3-1.4.8ZM24 48a2.6 2.6 0 1 0 0-5.2A2.6 2.6 0 0 0 24 48Zm16 0a2.6 2.6 0 1 0 0-5.2A2.6 2.6 0 0 0 40 48Z"
    fill="#38bdf8"
  />
</svg>
